<svg
  xmlns="http://www.w3.org/2000/svg"
  data-name="Layer 2"
  viewBox="0 0 100 125"
  x="0px"
  y="0px"
>
  <path
    fill="#c39e58"
    d="M21.05,69a3,3,0,1,1,3-3A3,3,0,0,1,21.05,69Zm0-5a2,2,0,1,0,2,2A2,2,0,0,0,21.05,64Z"
  />
  <path
    fill="#c39e58"
    d="M32.05,72a3,3,0,1,1,3-3A3,3,0,0,1,32.05,72Zm0-5a2,2,0,1,0,2,2A2,2,0,0,0,32.05,67Z"
  />
  <path
    fill="#c39e58"
    d="M34.05,57a3,3,0,1,1,3-3A3,3,0,0,1,34.05,57Zm0-5a2,2,0,1,0,2,2A2,2,0,0,0,34.05,52Z"
  />
  <path
    fill="#c39e58"
    d="M43.05,52a3,3,0,1,1,3-3A3,3,0,0,1,43.05,52Zm0-5a2,2,0,1,0,2,2A2,2,0,0,0,43.05,47Z"
  />
  <path
    fill="#c39e58"
    d="M46.05,65a3,3,0,1,1,3-3A3,3,0,0,1,46.05,65Zm0-5a2,2,0,1,0,2,2A2,2,0,0,0,46.05,60Z"
  />
  <path
    fill="#c39e58"
    d="M68.05,65a3,3,0,1,1,3-3A3,3,0,0,1,68.05,65Zm0-5a2,2,0,1,0,2,2A2,2,0,0,0,68.05,60Z"
  />
  <path
    fill="#c39e58"
    d="M77.05,65a3,3,0,1,1,3-3A3,3,0,0,1,77.05,65Zm0-5a2,2,0,1,0,2,2A2,2,0,0,0,77.05,60Z"
  />
  <path
    fill="#c39e58"
    d="M56.05,54a3,3,0,1,1,3-3A3,3,0,0,1,56.05,54Zm0-5a2,2,0,1,0,2,2A2,2,0,0,0,56.05,49Z"
  />
  <path
    fill="#c39e58"
    d="M81.05,58a3,3,0,1,1,3-3A3,3,0,0,1,81.05,58Zm0-5a2,2,0,1,0,2,2A2,2,0,0,0,81.05,53Z"
  />
  <path
    fill="#c39e58"
    d="M77.05,44a3,3,0,1,1,3-3A3,3,0,0,1,77.05,44Zm0-5a2,2,0,1,0,2,2A2,2,0,0,0,77.05,39Z"
  />
  <path
    fill="#c39e58"
    d="M90.05,38a3,3,0,1,1,3-3A3,3,0,0,1,90.05,38Zm0-5a2,2,0,1,0,2,2A2,2,0,0,0,90.05,33Z"
  />
  <path
    fill="#c39e58"
    d="M22.05,85a3,3,0,1,1,3-3A3,3,0,0,1,22.05,85Zm0-5a2,2,0,1,0,2,2A2,2,0,0,0,22.05,80Z"
  />
  <path
    fill="#c39e58"
    d="M89.06,91h-80V15a1,1,0,1,1,2,0V89h78a1,1,0,0,1,0,2Z"
  />
  <path
    fill="#c39e58"
    d="M89.67,29.84,85.06,21l-5.35,8.42,4,.17C81.4,56.31,67.73,56.19,50.45,56l-4.22,0C37.32,56,28.93,61,22,70.41a62.65,62.65,0,0,0-7.85,14.25l-.34.94,1.88.68.34-.94C16.09,85.07,26.17,58,46.24,58l4.2,0c17.61.17,32.83.3,35.27-28.36Z"
  />
</svg>