<svg
  xmlns="http://www.w3.org/2000/svg"
  xmlns:xlink="http://www.w3.org/1999/xlink"
  x="0px"
  y="0px"
  viewBox="0 0 100 125"
  enable-background="new 0 0 100 100"
  xml:space="preserve"
>
  <path
    fill="#c39e58"
    d="M94.958,45.535c-0.125-0.49-0.519-0.866-1.013-0.97l-0.605-0.126v-8.461l0.987-0.844  c0.39-0.332,0.553-0.86,0.419-1.354s-0.541-0.867-1.045-0.958l-5.545-1.006l0.002-7.124l-0.002-0.147l1.021-0.872  c0.389-0.333,0.553-0.861,0.419-1.354c-0.134-0.495-0.541-0.868-1.045-0.959l-44.817-8.087c-0.348-0.064-0.705,0.015-0.994,0.217  L8.013,37.709C7.357,38.073,4.955,39.722,5,44.305c0.051,4.977,2.996,7.237,3.122,7.331c0.017,0.013,0.036,0.021,0.054,0.033  c0.03,0.021,0.06,0.04,0.091,0.058c0.033,0.019,0.067,0.035,0.102,0.051c0.031,0.015,0.062,0.028,0.096,0.04  c0.038,0.014,0.076,0.024,0.115,0.034c0.022,0.007,0.043,0.016,0.065,0.021l2.051,0.43c-0.333,0.905-0.559,2.039-0.544,3.464  c0.025,2.466,0.76,4.264,1.511,5.463l-1.589,1.107c-0.66,0.368-3.058,2.02-3.011,6.596c0.05,4.977,2.994,7.242,3.123,7.331  c0.111,0.076,0.333,0.193,0.521,0.236l47.014,9.865c0.005,0.001,0.01,0.003,0.015,0.004l1.679,0.352  c0.09,0.019,0.182,0.028,0.272,0.028c0.312,0,0.618-0.111,0.86-0.317l30.899-26.394c0.385-0.329,0.549-0.848,0.424-1.337  c-0.126-0.49-0.519-0.866-1.014-0.97l-0.552-0.115v-7.131l4.229-3.612C94.919,46.543,95.084,46.024,94.958,45.535z M57.416,50.386  c0.313,0,0.619-0.111,0.861-0.318l27.244-23.271v8.426l-28.35,24.112V50.36C57.254,50.375,57.335,50.386,57.416,50.386z   M10.065,40.479l44.45,9.327v8.97l-44.45-9.308V40.479z M12.128,74.086v-8.982l44.449,9.329v8.982L12.128,74.086z M15.238,60.931  v-7.675l40.421,8.481c0.005,0.001,0.009,0.003,0.014,0.004l1.679,0.352c0.091,0.019,0.182,0.028,0.272,0.028  c0.312,0,0.619-0.111,0.861-0.317l0.735-0.629l0.444,0.093v8.979L15.238,60.931z M87.652,59.79L59.243,83.975l-0.009-8.987  c0.081,0.016,0.163,0.025,0.245,0.025c0.312,0,0.618-0.11,0.86-0.317l1.499-1.28l0.663,0.139c0.09,0.019,0.182,0.028,0.271,0.028  c0.313,0,0.619-0.111,0.861-0.317L87.652,52.74V59.79z M90.736,46.629L62.331,70.806l-0.01-8.983  c0.082,0.015,0.163,0.025,0.244,0.025c0.313,0,0.619-0.111,0.861-0.317l27.314-23.332L90.736,46.629z"
  />
</svg>