<svg
  id="mapleLogo"
  version="1.0"
  xmlns="http://www.w3.org/2000/svg"
  xmlns:xlink="http://www.w3.org/1999/xlink"
  x="0px"
  y="0px"
  width="387.729px"
  height="158.416px"
  viewBox="0 0 387.729 158.416"
  enable-background="new 0 0 387.729 158.416"
  xml:space="preserve"
>
  <g>
    <g>
      <path
        fill="#c39e58"
        d="M101.652,75.777c-0.594-2.723-2.396-5.053-5.363-6.939c-2.986-1.902-7.525-2.861-13.486-2.861
                    c-4.961,0-9.051,0.848-12.131,2.531c-3.074,1.672-5.139,3.605-6.139,5.758c-1.029,2.189-1.545,5.369-1.545,9.453v3.123h15.783
                    v-5.145c0-3.096,0.158-4.979,0.48-5.76c0.264-0.635,0.965-1.393,2.781-1.393c1.275,0,2.238,0.539,2.793,1.553
                    c0.502,0.932,0.744,2.797,0.744,5.713c0,2.346-0.227,3.883-0.682,4.693c-0.336,0.59-1.754,1.641-9.775,4.52
                    c-5.414,1.92-8.838,3.607-10.162,5.004c-1.303,1.369-1.963,4.047-1.963,7.959v4.445c0,5.27,1.25,8.713,3.713,10.219
                    c2.529,1.557,5.348,2.344,8.381,2.344c2.297,0,4.295-0.463,5.941-1.379c1.656-0.916,3.02-2.32,4.064-4.168l1.025,0.223v4.336
                    h16.463V93.373C102.576,84.517,102.263,78.597,101.652,75.777z M85.57,105.917c0,3.766-0.328,4.813-0.564,5.266
                    c-0.443,0.826-1.348,1.244-2.703,1.244c-1.771,0-2.547-0.83-2.887-1.521c-0.43-0.893-0.645-2.732-0.645-5.641
                    c0-2.529,0.23-4.424,0.711-5.797c0.506-1.424,2.211-3.092,5.221-5.113l0.867-0.584V105.917z"
      />
    </g>
    <g>
      <path
        fill="#c39e58"
        d="M148.619,72.402c-0.469-1.67-1.682-3.172-3.6-4.473c-1.928-1.297-4.252-1.953-6.904-1.953
                    c-2.186,0-4.213,0.453-6.057,1.369c-1.85,0.926-3.574,2.334-5.119,4.205l-1.084,1.311l0.107-1.637l0.268-4.254h-17.271v60.734
                    h17.004v-13.373l0.977,1.172c1.52,1.82,3.215,3.207,5.035,4.123c1.805,0.904,3.797,1.367,5.92,1.367
                    c2.66,0,4.959-0.592,6.836-1.766c1.85-1.16,3.096-2.738,3.693-4.697c0.621-2.021,0.939-5.504,0.939-10.35V81.41
                    C149.363,77.177,149.113,74.15,148.619,72.402z M132.361,105.363c0,2.965-0.148,4.795-0.455,5.607
                    c-0.238,0.664-0.898,1.457-2.619,1.457c-1.742,0-2.465-0.842-2.768-1.541c-0.371-0.877-0.557-2.936-0.557-6.291v-22.42
                    c0-3.223,0.176-5.209,0.533-6.088c0.289-0.707,0.996-1.543,2.752-1.543c1.793,0,2.455,0.762,2.693,1.398
                    c0.273,0.77,0.42,2.805,0.42,6.232V105.363z"
      />
    </g>
    <g>
      <rect
        x="155.035"
        y="55.042"
        fill="#c39e58"
        width="17.551"
        height="64.963"
      />
    </g>
    <g>
      <path
        fill="#c39e58"
        d="M218.432,93.916v-6.66c0-5.143-0.648-9.184-1.947-12c-1.268-2.775-3.52-5.033-6.685-6.723
                    c-3.191-1.703-7.305-2.557-12.244-2.557c-4.027,0-7.631,0.713-10.73,2.125c-3.053,1.395-5.279,3.424-6.619,6.039
                    c-1.354,2.65-2.043,6.342-2.043,10.975v15.762c0,3.967,0.305,7.012,0.916,9.059c0.602,2.027,1.697,3.91,3.26,5.596
                    c1.551,1.674,3.764,3.02,6.584,3.992c2.838,0.979,6.162,1.471,9.883,1.471c3.84,0,7.057-0.496,9.584-1.484
                    c2.503-0.986,4.595-2.475,6.226-4.438c1.637-1.979,2.693-3.855,3.135-5.574c0.455-1.76,0.682-4.322,0.682-7.6V98.39h-16.054v6.66
                    c0,2.795-0.24,4.646-0.727,5.67c-0.363,0.771-1.23,1.707-3.188,1.707c-1.619,0-2.352-0.729-2.672-1.34
                    c-0.422-0.783-0.627-2.406-0.627-4.955V93.916H218.432z M195.166,81.658c0-4.162,0.273-5.285,0.479-5.758
                    c0.254-0.619,0.953-1.355,2.783-1.355c1.225,0,2.088,0.531,2.482,1.545c0.344,0.873,0.518,2.695,0.518,5.568v4.439h-6.262V81.658z
                    "
      />
    </g>
    <path
      fill="#c39e58"
      d="M57.052,55.042v64.99H40.89l-0.057-43.879l-6.452,43.879H22.994l-6.771-42.949l-0.043,42.949H0.01v-64.99
                    h23.871c0.696,3.939,1.434,8.555,2.214,13.852l2.643,16.498l4.245-30.35H57.052z"
    />
  </g>
</svg>