<svg
  id="matlabLogo"
  xmlns="http://www.w3.org/2000/svg"
  viewBox="0 0 105 105"
>
  <path
    class="cls-2"
    d="M39.7,47.79c-1.61-1.16-3.77-2.73-6.15-4.39,2.8-1.16,5.44-2,8.29-3.21l3.5,2.61a34.79,34.79,0,0,1-5.64,5M62.54,38.9c-.61-1.69-1.15-3.43-1.76-5.13a31.13,31.13,0,0,0-2.24-5.19c-.38-.65-1.31-2.17-2.31-2.17a1.29,1.29,0,0,0-.73.26,8.44,8.44,0,0,0-1.85,2.46A29.32,29.32,0,0,1,51,33,9,9,0,0,1,50,34.09a8,8,0,0,1-1.94,1.36c-.22.09-.49.12-.73.2a4.18,4.18,0,0,0-1.39.78,15.42,15.42,0,0,0-2,2.14l-.48.61,3.12,2.42c2.44-2.88,5.13-5.64,7.08-10.84A24.78,24.78,0,0,1,48,42.54a47.15,47.15,0,0,1-6.11,6,3.48,3.48,0,0,1,1.63.13c1.62.66,2.47,3,3.18,4.68.5,1.18,1.06,2.38,1.55,3.58a8.47,8.47,0,0,0,3.77-2,28.27,28.27,0,0,0,3.16-3.43c1.88-2.23,4.29-5.28,7.14-3.89a8.05,8.05,0,0,1,1.36.87c.58.46,1,.94,1.6,1.41a19.57,19.57,0,0,0,2.26,1.92c-1.93-4.16-3.39-8.4-5-12.87"
    transform="translate(-82, -60) scale(2.7)"
    fill="#c39e58"
  />
</svg>