<svg
  id="russianDoll"
  xmlns="http://www.w3.org/2000/svg"
  xmlns:xlink="http://www.w3.org/1999/xlink"
  x="0px"
  y="0px"
  viewBox="0 0 90 112.5"
  enable-background="new 0 0 90 90"
  xml:space="preserve"
>
  <g>
    <path
      d="M43.028,11.5c1.255,3.181,4.235,7.334,11.295,8.286c0.404,0.054,0.768,0.081,1.107,0.091c0-0.032,0.005-0.062,0.005-0.095   c0-6.852-5.557-12.408-12.408-12.408c-6.852,0-12.408,5.556-12.408,12.408c0,0.032,0.005,0.062,0.005,0.095   c0.34-0.01,0.703-0.037,1.107-0.091C38.792,18.835,41.772,14.681,43.028,11.5z"
      fill="#c39e58"
    />
    <path
      d="M44.598,59.59c-16.069,0-29.203-2.956-33.653-4.091c-0.007,2.589,0.25,5.286,0.815,8.024   c3.007,12.196,11.702,23.026,26.295,24.8c1.161,0.189,2.566,0.318,3.775,0.318c0.085,0,0.628-0.011,0.714-0.017   c0.027,0,0.455,0.004,0.455,0.007c0.254-0.003,0.495-0.007,0.523-0.007c0.086,0.006,0.663,0.017,0.748,0.017   c1.209,0,2.632-0.129,3.793-0.318c14.593-1.773,23.297-12.604,26.304-24.8c0.571-2.767,0.825-5.491,0.811-8.102   C64.754,58.521,54.157,59.59,44.598,59.59z"
      fill="#c39e58"
    />
    <path
      d="M75.026,52.349c-0.477-5.115-2.054-9.621-4.494-12.853c-11.198-14.829-4.136-13.661-8.534-25.901   c-0.385-1.074-0.879-2.032-1.426-2.924c-0.087-0.154-0.181-0.301-0.27-0.456c-0.04-0.059-0.078-0.126-0.121-0.189   C56.729,4.361,50.343,0.532,43,0.462c-7,0.07-13.662,3.899-17.114,9.563c-0.043,0.063-0.013,0.13-0.053,0.189   c-0.089,0.155-0.183,0.302-0.27,0.456c-0.547,0.892-1.041,1.85-1.426,2.924c-4.398,12.241,2.196,11.906-8.534,25.901   c-2.479,3.234-4.06,7.78-4.52,12.941C16.614,53.901,46.633,61.06,75.026,52.349z M43,5.032c8.322,0.153,15.027,6.937,15.027,15.298   c0,8.362-6.705,15.145-15.027,15.298c-8-0.153-15.027-6.936-15.027-15.298C27.973,11.969,35,5.186,43,5.032z M30.25,46   c2.559-7.887,9.656-6.777,11.693-6.279c0.268-0.827,1.036-1.43,1.953-1.43c0.912,0,1.679,0.598,1.95,1.42   C47.938,39.208,54.959,38.166,57.5,46c0,0-9.414,0.419-11.795-4.676c-0.348,0.646-1.023,1.092-1.809,1.092   c-0.804,0-1.492-0.464-1.832-1.134C39.717,46.421,30.25,46,30.25,46z M45.896,46.699c0,1.092-0.883,1.975-1.974,1.975   c-1.09,0-1.974-0.883-1.974-1.975c0-1.09,0.884-1.974,1.974-1.974C45.013,44.726,45.896,45.609,45.896,46.699z M41.948,52.775   c0-1.091,0.884-1.974,1.974-1.974c1.091,0,1.975,0.883,1.975,1.974c0,1.092-0.884,1.975-1.975,1.975   C42.832,54.75,41.948,53.867,41.948,52.775z"
      fill="#c39e58"
    />
  </g>
</svg>