<svg
  id="spanishIcon"
  xmlns="http://www.w3.org/2000/svg"
  xmlns:xlink="http://www.w3.org/1999/xlink"
  x="0px"
  y="0px"
  viewBox="0 0 100 125"
  enable-background="new 0 0 100 100"
  xml:space="preserve"
>
  <path
    d="M61.416,20.522l0.134,6.093l5.882-1.61l0.136,6.095l5.881-1.61l0.14,6.097l5.882-1.609l0.136,6.093l5.882-1.608l0.14,6.097  l5.884-1.606l0.004,0.161c5.542-9.664,4.223-21.263-3.539-27.05c-7.859-5.858-19.544-3.689-27.222,4.635L61.416,20.522z   M92.118,35.634c0.798,0.594,0.962,1.723,0.368,2.522c-0.596,0.798-1.724,0.962-2.522,0.367c-0.798-0.594-0.961-1.723-0.368-2.521  C90.191,35.204,91.321,35.04,92.118,35.634z M87.304,32.044c0.798,0.595,0.962,1.725,0.366,2.521  c-0.594,0.799-1.722,0.963-2.521,0.368c-0.799-0.594-0.964-1.723-0.367-2.521C85.375,31.614,86.504,31.451,87.304,32.044z   M82.487,28.456c0.798,0.595,0.961,1.724,0.367,2.522c-0.595,0.797-1.723,0.962-2.521,0.368c-0.799-0.596-0.962-1.724-0.368-2.522  C80.559,28.026,81.69,27.861,82.487,28.456z M77.671,24.867c0.798,0.595,0.962,1.723,0.369,2.521  c-0.596,0.799-1.727,0.963-2.521,0.368c-0.797-0.595-0.963-1.724-0.368-2.521C75.745,24.436,76.874,24.271,77.671,24.867z   M72.854,21.277c0.798,0.595,0.965,1.724,0.37,2.521c-0.597,0.799-1.725,0.963-2.522,0.369c-0.796-0.595-0.963-1.724-0.366-2.521  C70.93,20.846,72.059,20.683,72.854,21.277z M68.041,17.688c0.797,0.594,0.963,1.723,0.366,2.521  c-0.594,0.797-1.723,0.962-2.521,0.367s-0.962-1.723-0.368-2.521C66.114,17.257,67.243,17.093,68.041,17.688z"
    fill="#c39e58"
  />
  <path
    d="M90.345,44.518l-5.885,1.607l-0.137-6.097l-5.886,1.609l-0.133-6.094l-5.883,1.608l-0.139-6.096l-5.882,1.609l-0.137-6.094  l-5.88,1.608l-0.136-6.093l-0.87,0.237c-0.148,0.189-0.307,0.363-0.452,0.557c-6.975,9.356-6.797,21.467,0.016,28.249  c-0.438,0.506-0.962,1.16-1.608,2.026c-2.459,3.3-5.774,8.401-9.148,13.115c-3.088-5.513-6.116-11.784-8.372-15.739  c-0.535-0.938-0.974-1.652-1.349-2.207c5.272-4.1,7.67-11.144,6.708-18.46l-3.463-1.419l-0.88,6.035l-5.639-2.315l-0.881,6.034  l-5.643-2.313L27.79,41.92l-5.64-2.314l-0.88,6.033l-5.639-2.316l-0.533,3.665c5.813,4.566,13.107,6.096,19.329,3.64  c0.287,0.604,0.678,1.346,1.213,2.284c2.456,4.305,6.811,10.793,10.114,16.655c-1.714,2.247-3.394,4.264-4.931,5.74  c-4.552,4.097-10.785,8.441-5.97,12.029c4.815,3.591,7.196-3.624,9.823-9.158c0.765-1.486,1.827-3.153,3.048-4.903  c0.64,1.291,1.195,2.52,1.606,3.635c1.933,5.812,3.417,13.263,8.635,10.286s-0.439-8.046-4.46-12.667  c-1.048-1.287-2.143-2.914-3.25-4.72c3.786-4.979,8.244-10.179,10.932-13.783c0.646-0.865,1.124-1.554,1.482-2.119  c8.445,4.591,20.102,1.301,27.077-8.056c0.217-0.293,0.405-0.597,0.608-0.894L90.345,44.518z M59.076,32.729  c-0.596,0.798-1.724,0.963-2.521,0.368c-0.797-0.594-0.963-1.723-0.368-2.521s1.725-0.962,2.521-0.368  C59.505,30.803,59.671,31.932,59.076,32.729z M63.893,36.319c-0.597,0.798-1.726,0.962-2.521,0.367  c-0.798-0.594-0.964-1.723-0.37-2.521c0.596-0.798,1.726-0.963,2.523-0.368C64.321,34.392,64.485,35.521,63.893,36.319z   M68.707,39.909c-0.596,0.797-1.724,0.962-2.521,0.368c-0.798-0.595-0.964-1.723-0.368-2.521c0.595-0.798,1.724-0.963,2.521-0.367  C69.138,37.98,69.303,39.11,68.707,39.909z M73.522,43.498c-0.594,0.798-1.725,0.963-2.521,0.368  c-0.798-0.594-0.963-1.723-0.366-2.521c0.593-0.798,1.722-0.962,2.521-0.368C73.953,41.57,74.119,42.699,73.522,43.498z   M78.339,47.087c-0.596,0.797-1.725,0.962-2.523,0.367c-0.797-0.595-0.96-1.724-0.367-2.521c0.596-0.799,1.727-0.962,2.522-0.368  C78.769,45.16,78.934,46.289,78.339,47.087z M83.152,50.677c-0.594,0.798-1.723,0.962-2.519,0.367  c-0.799-0.595-0.964-1.723-0.37-2.521c0.597-0.798,1.725-0.962,2.522-0.368C83.583,48.749,83.749,49.879,83.152,50.677z"
    fill="#c39e58"
  />
  <path
    d="M14.666,41.629l5.638,2.315l0.88-6.034l5.639,2.314l0.88-6.032l5.643,2.312l0.88-6.034l5.639,2.315l0.88-6.034l4.202,1.723  c-0.523-2.761-1.514-5.537-3.025-8.186c-1.642-2.88-3.727-5.306-6.064-7.244l-0.562,3.85l-5.643-2.313l-0.88,6.034l-5.639-2.314  l-0.88,6.033l-5.643-2.312l-0.879,6.033l-5.64-2.314l-0.879,6.033l-3.86-1.585c0.46,3.077,1.496,6.19,3.182,9.146  c1.505,2.639,3.381,4.898,5.482,6.749L14.666,41.629z M37.079,20.284c0.864-0.494,1.964-0.192,2.458,0.673  c0.494,0.864,0.193,1.965-0.671,2.458c-0.865,0.492-1.965,0.192-2.459-0.673C35.914,21.878,36.214,20.778,37.079,20.284z   M31.862,23.261c0.864-0.493,1.965-0.193,2.458,0.672c0.493,0.864,0.192,1.964-0.672,2.458c-0.865,0.493-1.965,0.192-2.458-0.672  C30.697,24.854,30.998,23.753,31.862,23.261z M26.646,26.236c0.865-0.493,1.965-0.192,2.458,0.672  c0.494,0.865,0.193,1.965-0.671,2.459c-0.865,0.493-1.965,0.192-2.459-0.672C25.48,27.83,25.782,26.73,26.646,26.236z   M21.429,29.214c0.865-0.494,1.965-0.194,2.458,0.671c0.493,0.864,0.193,1.964-0.672,2.458c-0.865,0.493-1.965,0.193-2.458-0.672  C20.264,30.807,20.564,29.706,21.429,29.214z M16.212,32.189c0.865-0.493,1.965-0.192,2.458,0.672  c0.494,0.865,0.193,1.964-0.671,2.458c-0.864,0.493-1.965,0.192-2.458-0.672C15.047,33.782,15.348,32.682,16.212,32.189z   M10.995,35.165c0.865-0.493,1.965-0.192,2.459,0.672s0.192,1.965-0.672,2.458c-0.865,0.494-1.965,0.193-2.459-0.671  C9.83,36.759,10.131,35.659,10.995,35.165z"
    fill="#c39e58"
  />
  <path
    d="M8.245,30.079l0.88-6.034l5.639,2.314l0.879-6.033l5.643,2.312l0.88-6.035l5.639,2.314l0.88-6.032l5.643,2.312l0.44-3.012  c-6.396-4.725-14.426-5.864-20.85-2.199c-6.36,3.628-9.477,11.006-8.749,18.829L8.245,30.079z"
    fill="#c39e58"
  />
</svg>