<svg id="sierpinsky" xmlns="http://www.w3.org/2000/svg" viewBox="0 0 885.4 771.95"><defs><style>.cls-2,.cls-3,.cls-4{fill:none;stroke-miterlimit:10;stroke:#e1bc55}.cls-2{stroke-width:3px}.cls-3{stroke-width:2px}</style></defs><path stroke="#e2bd56" stroke-width="4" fill="none" stroke-miterlimit="10" d="M440.5 767.93L881.93 4.96 3.45 2.44 440.5 767.93z" id="big-outline"/><g id="important-triangles"><path class="cls-2" d="M222.07 3.06l108.48 190.51-213.83-.25L222.07 3.06zM663.31 4.33l108.77 190.51-219.62-.63L663.31 4.33zM441.59 385.81L551.8 575.55l-221.51-.64 111.3-189.1zM442.69 3.7l219.53 381.01-441.24-1.27L442.69 3.7z"/></g><g id="medium-triangles"><path class="cls-3" d="M441.05 575.23l56.1 94.79-112.22-.32 56.12-94.47zM551.9 386.86l50.91 94.77-102.75-.29 51.84-94.48zM330.84 386.23l54.72 94.78-106.5-.31 51.78-94.47zM662.27 194.52l57.27 94.79-115.09-.33 57.82-94.46zM221.53 193.25l57.27 94.79-112.39-.32 55.12-94.47zM772.62 5.12l57.28 94.79-115.1-.33 57.82-94.46zM553 4.49l53.29 94.77-105.13-.3L553 4.49zM334.46 3.86l50.53 94.77-108.35-.31 57.82-94.46zM113.93 2.75L166.96 98l-109.13-.31 56.1-94.94z"/></g><g id="tiny-triangles"><path class="cls-4" d="M469.71 717.45l-58.14-.17 29.21-47.42 28.93 47.59zM524.74 622.78l-54.76-.15 26.47-46.39 28.29 46.54zM410.9 622.46l-51.68-.15 25.98-46.39 25.7 46.54zM576.67 528.42l-50-.15 26-45.45 24 45.6zM359.5 527.79l-58.14-.16 29.21-47.43 28.93 47.59zM525.29 431.82l-54.34-.15 24.73-46.16 29.61 46.31zM632.7 432.4l-54.73-.15 28.3-45.96 26.43 46.11zM412.2 432.77l-52.43-.15 26.62-47.43 25.81 47.58zM303.7 432.46l-52.75-.15 25.57-47.43 27.18 47.58zM690.56 338.65l-58.13-.17 29.2-47.42 28.93 47.59zM635.29 242.05l-58.13-.17 29.2-47.42 28.93 47.59zM746.1 242.63l-58.13-.16 29.2-47.42 28.93 47.58zM251.32 337.29l-58.13-.17 29.2-47.42 28.93 47.59zM196.05 240.69l-58.13-.17 29.2-47.42 28.93 47.59zM306.86 241.28l-58.13-.17 29.2-47.42 28.93 47.59zM800.42 148.79l-58.14-.17 29.21-47.42 28.93 47.59zM745.15 52.19l-58.13-.17 29.2-47.42 28.93 47.59zM855.96 52.78l-58.13-.17 29.2-47.42 28.93 47.59zM580.79 148.16l-58.13-.17 29.21-47.42 28.92 47.59zM525.52 51.56l-58.13-.17L496.6 3.97l28.92 47.59zM636.34 52.15l-58.14-.17 29.21-47.42 28.93 47.59zM361.26 147.88l-58.13-.16 29.2-47.42 28.93 47.58zM305.99 51.28l-58.13-.17 29.2-47.42 28.93 47.59zM416.8 51.87l-58.13-.17 29.2-47.42 28.93 47.59zM141.08 146.25l-58.13-.16 29.2-47.43 28.93 47.59zM85.81 49.65l-58.13-.17 29.2-47.42 28.93 47.59zM196.62 50.24l-58.13-.17 29.2-47.42 28.93 47.59z"/></g></svg>